<svg width="56" height="56" viewBox="0 0 56 56" fill="none" xmlns="http://www.w3.org/2000/svg">
<path d="M28.8225 30.3072L46.095 47.5972C46.3817 47.9319 46.5315 48.3626 46.5145 48.803C46.4975 49.2434 46.3149 49.6612 46.0032 49.9729C45.6916 50.2845 45.2738 50.4671 44.8333 50.4841C44.3929 50.5012 43.9623 50.3513 43.6275 50.0646L27.7725 34.2097L12.3725 49.6096C12.0446 49.9356 11.6011 50.1185 11.1388 50.1185C10.6764 50.1185 10.2329 49.9356 9.90501 49.6096C9.74098 49.447 9.61079 49.2534 9.52195 49.0402C9.4331 48.8269 9.38736 48.5982 9.38736 48.3672C9.38736 48.1361 9.4331 47.9074 9.52195 47.6941C9.61079 47.4809 9.74098 47.2873 9.90501 47.1246L26.7225 30.3072C27.0013 30.0293 27.3789 29.8733 27.7725 29.8733C28.1661 29.8733 28.5437 30.0293 28.8225 30.3072Z" fill="#2BFFFC"/>
<path d="M28.8225 9.695L46.095 26.985C46.3817 27.3198 46.5315 27.7504 46.5145 28.1908C46.4975 28.6313 46.3149 29.0491 46.0032 29.3607C45.6916 29.6724 45.2738 29.855 44.8334 29.872C44.3929 29.889 43.9623 29.7392 43.6275 29.4525L27.7725 13.5975L12.3725 28.9975C12.0446 29.3234 11.6011 29.5064 11.1388 29.5064C10.6764 29.5064 10.2329 29.3234 9.90501 28.9975C9.57907 28.6696 9.39612 28.2261 9.39612 27.7637C9.39612 27.3014 9.57907 26.8579 9.90501 26.53L26.7225 9.695C27.0013 9.41715 27.3789 9.26114 27.7725 9.26114C28.1661 9.26114 28.5437 9.41715 28.8225 9.695Z" fill="#E191A1"/>
</svg>
