<svg width="79" height="79" viewBox="0 0 79 79" fill="none" xmlns="http://www.w3.org/2000/svg">
<path d="M19.4723 32.8035H3.05508C2.22187 32.8035 1.54297 33.4824 1.54297 34.3156C1.54297 35.1488 2.22187 35.8277 3.05508 35.8277H19.4723C20.3055 35.8277 20.9844 35.1488 20.9844 34.3156C20.9844 33.4824 20.3055 32.8035 19.4723 32.8035Z" fill="#E191A1"/>
<path d="M19.4723 41.7219H11.9117C11.0785 41.7219 10.3996 42.4008 10.3996 43.234C10.3996 44.0672 11.0785 44.7461 11.9117 44.7461H19.4723C20.3055 44.7461 20.9844 44.0672 20.9844 43.234C20.9844 42.4008 20.3055 41.7219 19.4723 41.7219Z" fill="#FFB8B8"/>
<path d="M19.4723 50.6402H7.00508C6.17187 50.6402 5.49297 51.3191 5.49297 52.1523C5.49297 52.9855 6.17187 53.6644 7.00508 53.6644H19.4723C20.3055 53.6644 20.9844 52.9855 20.9844 52.1523C20.9844 51.3191 20.3055 50.6402 19.4723 50.6402Z" fill="#E6E6E6"/>
<path d="M74.9574 32.0629C73.723 29.4398 72.0875 27.0637 70.0816 24.9961C69.125 23.9777 68.0449 23.052 66.934 22.2188L68.909 19.5957C69.4027 18.9168 69.2793 17.9602 68.6004 17.4664C67.9215 16.9727 66.9648 17.0961 66.4711 17.775L64.3727 20.5523C62.984 19.7191 61.5027 19.0402 59.9906 18.4848C58.6637 18.0219 57.3059 17.6516 55.9172 17.3738C55.0223 17.2195 54.0965 17.0961 53.2016 17.0344V12.4363H56.2566C57.0898 12.4363 57.7688 11.7574 57.7688 10.9242C57.7688 10.091 57.0898 9.41211 56.2566 9.41211H47.0914C46.2582 9.41211 45.5793 10.091 45.5793 10.9242C45.5793 11.7574 46.2582 12.4363 47.0914 12.4363H50.1465V16.9109C46.6285 17.0344 43.1414 17.8676 39.932 19.3488C37.309 20.5832 34.9328 22.1879 32.8344 24.1938C29.9027 26.9711 27.65 30.4582 26.2613 34.2539C25.7676 35.5809 25.3973 37.0004 25.1195 38.4199C24.8418 39.8395 24.7184 41.259 24.6566 42.6785C24.5641 46.752 25.4281 50.8254 27.1871 54.5285C28.4215 57.1207 30.0262 59.466 32.032 61.5336C34.8402 64.4652 38.3273 66.718 42.1231 68.0758C43.45 68.5387 44.8078 68.909 46.1965 69.1867C47.5852 69.4336 48.9738 69.5879 50.3934 69.6188C50.6094 69.6188 50.8563 69.6188 51.0723 69.6188C54.8988 69.6188 58.7254 68.7855 62.1816 67.15C64.7738 65.9465 67.15 64.3418 69.2176 62.3668C72.1801 59.5586 74.4637 56.0715 75.8523 52.2449C76.3461 50.918 76.7164 49.4984 76.9633 48.1098C77.241 46.6902 77.3953 45.2398 77.4262 43.8203C77.5496 39.7777 76.6855 35.7043 74.9574 32.0629ZM74.0008 47.5234C73.7539 48.7887 73.4453 49.9922 73.0133 51.1957C71.7789 54.5594 69.7731 57.6762 67.15 60.1449C65.3293 61.873 63.2309 63.3234 60.9164 64.3727C57.6762 65.8848 54.0348 66.6563 50.5168 66.5328C49.2824 66.502 48.048 66.3785 46.8137 66.1316C45.5793 65.9156 44.3758 65.5762 43.2031 65.175C39.8395 63.9715 36.7535 61.9656 34.2848 59.3734C32.5258 57.5527 31.0754 55.4543 29.9953 53.1707C28.4523 49.9305 27.6809 46.2891 27.7734 42.7094C27.8043 41.4441 27.9277 40.1789 28.1746 38.9445C28.4215 37.6793 28.7609 36.4449 29.1621 35.2723C30.3656 31.9086 32.3715 28.8535 34.9637 26.3848C36.8152 24.6258 38.9137 23.1754 41.259 22.0953C44.3141 20.6758 47.7086 19.9352 51.0723 19.9352C51.2574 19.9352 51.4734 19.9352 51.6586 19.9352C52.893 19.966 54.1273 20.0895 55.3617 20.3363C56.5961 20.5523 57.7996 20.8918 58.9723 21.3238C62.3359 22.5273 65.4219 24.5023 67.8906 27.0945C69.6496 28.9461 71.1 31.0445 72.2109 33.359C73.7231 36.5992 74.4945 40.1789 74.402 43.7586C74.3711 44.993 74.2477 46.2891 74.0008 47.5234Z" fill="#D6F8F4"/>
<path d="M60.5152 32.6801L54.0039 38.5742C53.6645 38.3582 53.325 38.2039 52.9547 38.0496C52.677 37.957 52.3992 37.8644 52.1215 37.8336C51.8129 37.7719 51.5352 37.741 51.2574 37.741C50.4242 37.7101 49.5602 37.8953 48.7887 38.2656C48.2332 38.5125 47.7395 38.8519 47.3074 39.284C46.6902 39.8703 46.2273 40.5801 45.9496 41.3824C45.857 41.6601 45.7645 41.9379 45.7027 42.2465C45.641 42.5551 45.6102 42.8328 45.6102 43.1414C45.5793 44.0055 45.7645 44.8387 46.1348 45.6101C46.3816 46.1656 46.7211 46.6285 47.1531 47.0605C47.7395 47.6777 48.4801 48.1406 49.2516 48.4183C49.5293 48.5109 49.807 48.6035 50.0848 48.6344C50.3625 48.6961 50.6711 48.7269 50.9488 48.7269C51.0106 48.7269 51.0414 48.7269 51.1031 48.7269C51.9055 48.7269 52.7078 48.5418 53.4176 48.2023C53.9422 47.9555 54.4668 47.616 54.8988 47.2148C55.516 46.6285 55.9789 45.8879 56.2875 45.1164C56.3801 44.8387 56.4727 44.5609 56.5344 44.2523C56.5961 43.9437 56.627 43.666 56.627 43.3574C56.6578 42.5242 56.4727 41.6601 56.1023 40.8887C56.1023 40.8578 56.0715 40.8578 56.0715 40.8269L62.6137 34.9328C63.2309 34.3773 63.2926 33.3898 62.7371 32.7726C62.1199 32.1863 61.1633 32.1246 60.5152 32.6801ZM53.5102 43.6969C53.4793 43.8203 53.4484 43.9746 53.4176 44.098C53.2941 44.4375 53.0781 44.7769 52.8004 45.0238C52.6152 45.209 52.3992 45.3633 52.1523 45.4559C51.8129 45.6101 51.4426 45.6719 51.0723 45.6719C50.9488 45.6719 50.7945 45.641 50.6711 45.641C50.5477 45.6101 50.4242 45.5793 50.3008 45.5484C49.9613 45.425 49.6219 45.209 49.375 44.9312C49.1898 44.7461 49.0355 44.5301 48.9121 44.2832C48.7578 43.9437 48.6652 43.5734 48.6652 43.2031C48.6652 43.0797 48.6961 42.9254 48.6961 42.8019C48.727 42.6785 48.7578 42.5242 48.7887 42.4008C48.9121 42.0613 49.1281 41.7219 49.4059 41.475C49.591 41.2898 49.807 41.1355 50.0539 41.0121C50.3934 40.8578 50.7328 40.7961 51.0723 40.7961C51.1031 40.7961 51.1031 40.7961 51.134 40.7961C51.2574 40.7961 51.3809 40.8269 51.5352 40.8269C51.6586 40.8578 51.782 40.8887 51.9055 40.9195C52.2758 41.043 52.5844 41.259 52.8313 41.5367C53.0164 41.7219 53.1707 41.9687 53.2941 42.1848C53.4484 42.5242 53.541 42.8945 53.5102 43.2648C53.541 43.4191 53.5102 43.5734 53.5102 43.6969Z" fill="#2BFFFC"/>
</svg>
