<svg width="80" height="80" viewBox="0 0 80 80" fill="none" xmlns="http://www.w3.org/2000/svg">
<path d="M19.7188 33.2188H3.09375C2.25 33.2188 1.5625 33.9062 1.5625 34.75C1.5625 35.5937 2.25 36.2813 3.09375 36.2813H19.7188C20.5625 36.2813 21.25 35.5937 21.25 34.75C21.25 33.9062 20.5625 33.2188 19.7188 33.2188Z" fill="#E191A1"/>
<path d="M19.7188 42.25H12.0625C11.2187 42.25 10.5312 42.9375 10.5312 43.7813C10.5312 44.625 11.2187 45.3125 12.0625 45.3125H19.7188C20.5625 45.3125 21.25 44.625 21.25 43.7813C21.25 42.9375 20.5625 42.25 19.7188 42.25Z" fill="#FFB8B8"/>
<path d="M19.7188 51.2812H7.09375C6.25 51.2812 5.5625 51.9687 5.5625 52.8125C5.5625 53.6562 6.25 54.3437 7.09375 54.3437H19.7188C20.5625 54.3437 21.25 53.6562 21.25 52.8125C21.25 51.9687 20.5625 51.2812 19.7188 51.2812Z" fill="#E6E6E6"/>
<path d="M75.9062 32.4688C74.6562 29.8125 73 27.4063 70.9687 25.3125C70 24.2813 68.9062 23.3438 67.7812 22.5L69.7812 19.8438C70.2812 19.1563 70.1562 18.1875 69.4687 17.6875C68.7812 17.1875 67.8125 17.3125 67.3125 18L65.1875 20.8125C63.7812 19.9687 62.2812 19.2813 60.75 18.7188C59.4062 18.25 58.0312 17.875 56.625 17.5937C55.7187 17.4375 54.7812 17.3125 53.875 17.25V12.5937H56.9687C57.8125 12.5937 58.5 11.9063 58.5 11.0625C58.5 10.2188 57.8125 9.53125 56.9687 9.53125H47.6875C46.8437 9.53125 46.1562 10.2188 46.1562 11.0625C46.1562 11.9063 46.8437 12.5937 47.6875 12.5937H50.7812V17.125C47.2187 17.25 43.6875 18.0938 40.4375 19.5938C37.7812 20.8438 35.375 22.4688 33.25 24.5C30.2812 27.3125 28 30.8438 26.5937 34.6875C26.0937 36.0313 25.7187 37.4688 25.4375 38.9063C25.1562 40.3438 25.0312 41.7813 24.9687 43.2188C24.875 47.3438 25.75 51.4687 27.5312 55.2187C28.7812 57.8437 30.4062 60.2187 32.4375 62.3125C35.2812 65.2812 38.8125 67.5625 42.6562 68.9375C44 69.4063 45.375 69.7812 46.7812 70.0625C48.1875 70.3125 49.5937 70.4688 51.0312 70.5C51.25 70.5 51.5 70.5 51.7187 70.5C55.5937 70.5 59.4687 69.6563 62.9687 68C65.5937 66.7813 68 65.1563 70.0937 63.1563C73.0937 60.3125 75.4062 56.7813 76.8125 52.9063C77.3125 51.5625 77.6875 50.125 77.9375 48.7187C78.2187 47.2812 78.375 45.8125 78.4062 44.375C78.5312 40.2813 77.6562 36.1563 75.9062 32.4688ZM74.9375 48.125C74.6875 49.4063 74.375 50.625 73.9375 51.8437C72.6875 55.25 70.6562 58.4062 68 60.9062C66.1562 62.6562 64.0312 64.125 61.6875 65.1875C58.4062 66.7188 54.7187 67.5 51.1562 67.375C49.9062 67.3438 48.6562 67.2188 47.4062 66.9688C46.1562 66.75 44.9375 66.4062 43.75 66C40.3437 64.7812 37.2187 62.75 34.7187 60.125C32.9375 58.2812 31.4687 56.1563 30.375 53.8438C28.8125 50.5625 28.0312 46.875 28.125 43.25C28.1562 41.9687 28.2812 40.6875 28.5312 39.4375C28.7812 38.1562 29.125 36.9063 29.5312 35.7188C30.75 32.3125 32.7812 29.2188 35.4062 26.7188C37.2812 24.9375 39.4062 23.4687 41.7812 22.375C44.875 20.9375 48.3125 20.1875 51.7187 20.1875C51.9062 20.1875 52.125 20.1875 52.3125 20.1875C53.5625 20.2187 54.8125 20.3438 56.0625 20.5938C57.3125 20.8125 58.5312 21.1562 59.7187 21.5937C63.125 22.8125 66.25 24.8125 68.75 27.4375C70.5312 29.3125 72 31.4375 73.125 33.7812C74.6562 37.0625 75.4375 40.6875 75.3437 44.3125C75.3125 45.5625 75.1875 46.875 74.9375 48.125Z" fill="#79BCB8"/>
<path d="M61.2812 33.0937L54.6874 39.0625C54.3437 38.8437 53.9999 38.6875 53.6249 38.5312C53.3437 38.4375 53.0624 38.3437 52.7812 38.3125C52.4687 38.25 52.1874 38.2187 51.9062 38.2187C51.0624 38.1875 50.1874 38.375 49.4062 38.75C48.8437 39 48.3437 39.3437 47.9062 39.7812C47.2812 40.375 46.8124 41.0937 46.5312 41.9062C46.4374 42.1875 46.3437 42.4687 46.2812 42.7812C46.2187 43.0937 46.1874 43.375 46.1874 43.6875C46.1562 44.5625 46.3437 45.4062 46.7187 46.1875C46.9687 46.75 47.3124 47.2187 47.7499 47.6562C48.3437 48.2812 49.0937 48.75 49.8749 49.0312C50.1562 49.125 50.4374 49.2187 50.7187 49.25C50.9999 49.3125 51.3124 49.3437 51.5937 49.3437C51.6562 49.3437 51.6874 49.3437 51.7499 49.3437C52.5624 49.3437 53.3749 49.1562 54.0937 48.8125C54.6249 48.5625 55.1562 48.2187 55.5937 47.8125C56.2187 47.2187 56.6874 46.4687 56.9999 45.6875C57.0937 45.4062 57.1874 45.125 57.2499 44.8125C57.3124 44.5 57.3437 44.2187 57.3437 43.9062C57.3749 43.0625 57.1874 42.1875 56.8124 41.4062C56.8124 41.375 56.7812 41.375 56.7812 41.3437L63.4062 35.375C64.0312 34.8125 64.0937 33.8125 63.5312 33.1875C62.9062 32.5937 61.9374 32.5312 61.2812 33.0937ZM54.1874 44.25C54.1562 44.375 54.1249 44.5312 54.0937 44.6562C53.9687 45 53.7499 45.3437 53.4687 45.5937C53.2812 45.7812 53.0624 45.9375 52.8124 46.0312C52.4687 46.1875 52.0937 46.25 51.7187 46.25C51.5937 46.25 51.4374 46.2187 51.3124 46.2187C51.1874 46.1875 51.0624 46.1562 50.9374 46.125C50.5937 46 50.2499 45.7812 49.9999 45.5C49.8124 45.3125 49.6562 45.0937 49.5312 44.8437C49.3749 44.5 49.2812 44.125 49.2812 43.75C49.2812 43.625 49.3124 43.4687 49.3124 43.3437C49.3437 43.2187 49.3749 43.0625 49.4062 42.9375C49.5312 42.5937 49.7499 42.25 50.0312 42C50.2187 41.8125 50.4374 41.6562 50.6874 41.5312C51.0312 41.375 51.3749 41.3125 51.7187 41.3125C51.7499 41.3125 51.7499 41.3125 51.7812 41.3125C51.9062 41.3125 52.0312 41.3437 52.1874 41.3437C52.3124 41.375 52.4374 41.4062 52.5624 41.4375C52.9374 41.5625 53.2499 41.7812 53.4999 42.0625C53.6874 42.25 53.8437 42.5 53.9687 42.7187C54.1249 43.0625 54.2187 43.4375 54.1874 43.8125C54.2187 43.9687 54.1874 44.125 54.1874 44.25Z" fill="#5EC2B7"/>
</svg>
