<svg width="49" height="49" viewBox="0 0 49 49" fill="none" xmlns="http://www.w3.org/2000/svg">
<path d="M47.2381 10.8782C47.2381 5.6712 43.0018 1.43491 37.7947 1.43491H17.7147C17.0381 1.43491 16.4897 1.98334 16.4897 2.65991C16.4897 3.33647 17.0381 3.88491 17.7147 3.88491H37.7948C41.6509 3.88491 44.7881 7.02213 44.7881 10.8782L44.7882 38.1216C44.7882 39.9896 44.0607 41.7457 42.7399 43.0667C41.419 44.3874 39.6629 45.1149 37.7949 45.1148L19.4235 45.115C15.5673 45.115 12.4302 41.9777 12.4302 38.1216V10.8782C12.4302 5.67114 8.19395 1.43484 2.9869 1.43484C2.3104 1.43484 1.7619 1.98328 1.7619 2.65984C1.7619 3.33641 2.3104 3.88484 2.9869 3.88484C6.84302 3.88484 9.98018 7.02207 9.98018 10.8782V38.1216C9.98018 43.3287 14.2165 47.565 19.4235 47.565L37.7949 47.5648C37.795 47.5648 37.7948 47.5648 37.795 47.5648C40.3172 47.5648 42.6887 46.5825 44.4723 44.799C46.256 43.0154 47.2383 40.644 47.2383 38.1216L47.2381 10.8782Z" fill="white"/>
<path d="M13.5782 3.88497H13.9887C14.6653 3.88497 15.2137 3.33653 15.2137 2.65997C15.2137 1.9834 14.6653 1.43497 13.9887 1.43497H13.5782C12.9017 1.43497 12.3532 1.9834 12.3532 2.65997C12.3532 3.33653 12.9017 3.88497 13.5782 3.88497Z" fill="white"/>
<path d="M23.4075 39.5124C23.5332 39.942 23.8831 40.2689 24.3203 40.3649L26.1806 40.7738L26.5896 42.6342C26.6856 43.0714 27.0125 43.4213 27.4422 43.5469C27.5555 43.5801 27.6712 43.5962 27.7859 43.5962C28.1062 43.5962 28.4192 43.4704 28.6523 43.2375L33.6034 38.2863C33.676 38.2893 33.7487 38.2918 33.8221 38.2918C33.8954 38.2918 33.9682 38.2893 34.0408 38.2863L38.9919 43.2375C39.2249 43.4705 39.5379 43.5962 39.8583 43.5962C39.973 43.5962 40.0887 43.58 40.2019 43.5469C40.6316 43.4213 40.9585 43.0714 41.0545 42.6342L41.4635 40.7738L43.3238 40.3649C43.761 40.2689 44.111 39.942 44.2366 39.5124C44.3623 39.0827 44.2436 38.6188 43.927 38.3023L38.9759 33.351C38.9789 33.2784 38.9815 33.2057 38.9815 33.1324C38.9815 30.2875 36.667 27.9731 33.8221 27.9731C30.9771 27.9731 28.6627 30.2875 28.6627 33.1324C28.6627 33.2057 28.6652 33.2785 28.6682 33.3511L23.7171 38.3023C23.4006 38.6188 23.2819 39.0827 23.4075 39.5124ZM40.6124 38.4524L40.1723 38.549C39.7058 38.6516 39.3414 39.0159 39.2388 39.4825L39.1421 39.9227L36.6586 37.4391C37.2422 37.0534 37.7431 36.5525 38.1289 35.9688L40.6124 38.4524ZM33.8221 30.423C35.3161 30.423 36.5315 31.6384 36.5315 33.1323C36.5315 34.6263 35.316 35.8417 33.8221 35.8417C32.3281 35.8417 31.1127 34.6263 31.1127 33.1323C31.1127 31.6384 32.3281 30.423 33.8221 30.423ZM29.5153 35.9688C29.9011 36.5525 30.402 37.0534 30.9857 37.4391L28.5021 39.9227L28.4054 39.4825C28.3028 39.0159 27.9384 38.6516 27.4718 38.549L27.0318 38.4524L29.5153 35.9688Z" fill="white"/>
<path d="M40.2766 11.7356C40.9531 11.7356 41.5016 11.1872 41.5016 10.5106C41.5016 9.83405 40.9531 9.28561 40.2766 9.28561H39.899C39.2224 9.28561 38.674 9.83405 38.674 10.5106C38.674 11.1872 39.2224 11.7356 39.899 11.7356H40.2766Z" fill="white"/>
<path d="M17.0335 11.7356H36.1436C36.8202 11.7356 37.3686 11.1872 37.3686 10.5106C37.3686 9.83405 36.8202 9.28561 36.1436 9.28561H17.0335C16.3569 9.28561 15.8085 9.83405 15.8085 10.5106C15.8085 11.1872 16.3569 11.7356 17.0335 11.7356Z" fill="white"/>
<path d="M17.0335 18.7178H17.4111C18.0876 18.7178 18.6361 18.1693 18.6361 17.4928C18.6361 16.8162 18.0876 16.2678 17.4111 16.2678H17.0335C16.3569 16.2678 15.8085 16.8162 15.8085 17.4928C15.8085 18.1693 16.3569 18.7178 17.0335 18.7178Z" fill="white"/>
<path d="M19.9415 17.4928C19.9415 18.1693 20.4899 18.7178 21.1665 18.7178H40.2766C40.9532 18.7178 41.5016 18.1693 41.5016 17.4928C41.5016 16.8162 40.9532 16.2678 40.2766 16.2678H21.1665C20.4899 16.2678 19.9415 16.8162 19.9415 17.4928Z" fill="white"/>
<path d="M39.899 25.6999H40.2766C40.9531 25.6999 41.5016 25.1514 41.5016 24.4749C41.5016 23.7983 40.9531 23.2499 40.2766 23.2499H39.899C39.2224 23.2499 38.674 23.7983 38.674 24.4749C38.674 25.1514 39.2224 25.6999 39.899 25.6999Z" fill="white"/>
<path d="M17.0335 25.6999H36.1436C36.8202 25.6999 37.3686 25.1514 37.3686 24.4749C37.3686 23.7983 36.8202 23.2499 36.1436 23.2499H17.0335C16.3569 23.2499 15.8085 23.7983 15.8085 24.4749C15.8085 25.1514 16.3569 25.6999 17.0335 25.6999Z" fill="white"/>
</svg>
