<svg width="67" height="67" viewBox="0 0 67 67" fill="none" xmlns="http://www.w3.org/2000/svg">
<path d="M63.0403 28.7363L34.5452 14.4854C34.2153 14.3377 33.858 14.2614 33.4966 14.2614C33.1352 14.2614 32.7779 14.3377 32.4481 14.4854L3.95969 28.7363C3.78226 28.7941 3.62767 28.9066 3.51805 29.0576C3.40843 29.2087 3.3494 29.3905 3.3494 29.5771C3.3494 29.7638 3.40843 29.9456 3.51805 30.0966C3.62767 30.2477 3.78226 30.3601 3.95969 30.418L8.26779 32.5687H8.03999V56.3805C7.72057 56.5632 7.46194 56.8358 7.29629 57.1644L5.43369 60.9298C5.29129 61.2165 5.22434 61.5348 5.23917 61.8545C5.25401 62.1743 5.35014 62.485 5.51847 62.7573C5.6868 63.0296 5.92179 63.2545 6.20121 63.4107C6.48063 63.5669 6.79527 63.6492 7.11539 63.65H10.8875C11.2091 63.6509 11.5256 63.5695 11.8068 63.4134C12.088 63.2573 12.3245 63.0318 12.4938 62.7584C12.6631 62.485 12.7595 62.1727 12.7739 61.8514C12.7883 61.5302 12.7201 61.2105 12.5759 60.9231L10.72 57.1644C10.5543 56.8358 10.2957 56.5632 9.97629 56.3805V33.4062L14.6663 35.7646V47.4092C14.6663 50.049 16.6763 52.5012 20.3077 54.3169C23.8453 56.0857 28.5353 57.0572 33.5134 57.0572C38.4915 57.0572 43.1815 56.0857 46.7191 54.3169C50.3572 52.5012 52.3605 50.0423 52.3605 47.4092V35.7646L63.0805 30.4046C63.2579 30.3467 63.4125 30.2343 63.5221 30.0832C63.6318 29.9322 63.6908 29.7504 63.6908 29.5637C63.6908 29.3771 63.6318 29.1953 63.5221 29.0442C63.4125 28.8932 63.2579 28.7807 63.0805 28.7229L63.0403 28.7363ZM10.8875 61.774H7.11539L8.99809 58.0086L10.8875 61.774ZM50.4577 47.4092C50.4577 49.2986 48.8229 51.1545 45.8615 52.6352C42.5852 54.27 38.19 55.1812 33.5 55.1812C28.81 55.1812 24.4148 54.27 21.1385 52.6352C18.1771 51.1545 16.5423 49.2852 16.5423 47.4092V36.6892L32.4481 44.6622C32.7779 44.8099 33.1352 44.8862 33.4966 44.8862C33.858 44.8862 34.2153 44.8099 34.5452 44.6622L50.4577 36.7026V47.4092ZM33.7077 42.9671C33.6367 42.9786 33.5643 42.9786 33.4933 42.9671C33.4244 42.9767 33.3545 42.9767 33.2856 42.9671L6.48559 29.5671L33.2856 16.1671C33.3566 16.1556 33.429 16.1556 33.5 16.1671C33.5689 16.1575 33.6388 16.1575 33.7077 16.1671L60.5077 29.5671L33.7077 42.9671Z" fill="white"/>
</svg>
